<?xml version="1.0" standalone="no"?>
<!DOCTYPE svg PUBLIC "-//W3C//DTD SVG 20010904//EN"
 "http://www.w3.org/TR/2001/REC-SVG-20010904/DTD/svg10.dtd">
<svg version="1.0" xmlns="http://www.w3.org/2000/svg"
 width="431.000000pt" height="431.000000pt" viewBox="0 0 431.000000 431.000000"
 preserveAspectRatio="xMidYMid meet">
<metadata>
Created by potrace 1.14, written by Peter Selinger 2001-2017
</metadata>
<g transform="translate(0.000000,431.000000) scale(0.100000,-0.100000)"
fill="#000000" stroke="none">
<path d="M898 3651 l-48 -47 0 -201 0 -200 58 -16 c31 -8 76 -20 100 -27 l42
-11 0 -735 c0 -634 -2 -735 -14 -731 -8 3 -30 9 -50 12 -32 7 -39 3 -86 -41
l-50 -49 0 -202 0 -203 28 -6 c15 -4 261 -70 547 -146 286 -77 579 -155 650
-173 72 -19 185 -50 251 -68 l122 -33 51 51 c43 43 51 57 51 88 l0 36 47 -14
48 -15 52 52 c43 43 53 59 53 86 0 31 2 34 25 28 14 -3 35 -8 48 -11 17 -5 34
5 75 45 43 42 52 56 52 85 0 34 1 35 28 29 15 -4 36 -10 48 -15 17 -6 31 2 73
45 l51 52 0 600 0 599 -87 24 c-49 12 -94 24 -100 27 -9 2 -13 32 -13 103 l0
100 -52 15 c-29 8 -74 20 -100 27 l-48 11 0 102 0 101 -97 25 -98 25 -3 101
-3 101 -347 93 c-362 97 -533 143 -968 260 -143 38 -267 70 -275 70 -8 -1 -35
-22 -61 -49z m897 -701 c14 -5 38 -12 53 -15 15 -2 81 -20 147 -38 66 -19 150
-42 187 -51 l67 -18 3 -100 3 -101 95 -26 95 -26 3 -537 2 -536 -47 14 -47 14
-53 -52 c-43 -42 -53 -59 -53 -85 0 -18 -3 -33 -6 -33 -4 0 -97 24 -208 54
-110 30 -220 59 -243 66 l-43 11 0 734 c0 449 4 735 9 735 5 0 21 -4 36 -10z"/>
</g>
</svg>
